<svg width="477" height="477" viewBox="0 0 477 477" fill="none" xmlns="http://www.w3.org/2000/svg">
<path fill-rule="evenodd" clip-rule="evenodd" d="M206.966 1.50648C163.635 7.38348 121.881 25.3295 88.315 52.5015C40.465 91.2355 9.503 146.759 1.503 208.177C-0.501 223.563 -0.501 253.19 1.503 268.576C5.004 295.448 12.475 320.115 24.463 344.376C59.939 416.175 128.37 464.933 208.267 475.34C223.653 477.344 253.279 477.344 268.665 475.34C338.284 466.272 399.253 428.209 438.403 369.376C447.36 355.917 458.894 332.282 464.358 316.193C473.241 290.038 476.966 267.048 476.966 238.376C476.966 199.569 469.318 166.474 452.469 132.376C416.993 60.5775 348.562 11.8205 268.665 1.41349C253.895 -0.510514 221.474 -0.461515 206.966 1.50648ZM357.02 123.751C363.541 127.968 389.607 154.772 391.43 159.135C393.377 163.796 393.378 167.942 391.432 172.658C390.352 175.274 363.755 202.547 301.682 264.69C253.163 313.263 212.127 353.715 210.489 354.583C206.665 356.611 198.267 356.612 194.443 354.585C190.076 352.27 87.243 248.874 86.012 245.561C84.669 241.946 84.67 234.8 86.015 231.191C87.396 227.483 117.408 197.286 122.176 194.806C126.654 192.477 132.713 192.328 137.748 194.423C140.212 195.449 151.865 206.323 172.307 226.673L203.148 257.376L268.307 191.69C304.144 155.563 335.216 124.851 337.356 123.44C343.025 119.703 350.954 119.828 357.02 123.751Z" fill="#4CAF50"/>
</svg>
